# MagicaVoxel @ Ephtracy

# group
o 

# material
mtllib aguamanantial.mtl
usemtl palette

# normals
vn -1 0 0
vn 1 0 0
vn 0 0 1
vn 0 0 -1
vn 0 -1 0
vn 0 1 0

# texcoords
vt 0.0136719 0.5
vt 0.0175781 0.5
vt 0.591797 0.5
vt 0.966797 0.5
vt 0.974609 0.5

# verts
v 0 2 -0.1
v 0 2 -0.3
v 0 2.1 0
v 0 2.1 -0.1
v 0 2.1 -0.3
v 0 2.1 -0.4
v 0 2.2 0
v 0 2.2 -0.4
v 0 2.3 0
v 0 2.3 -0.1
v 0 2.3 -0.3
v 0 2.3 -0.4
v 0 2.4 -0.1
v 0 2.4 -0.3
v 0 2.6 -0.1
v 0 2.6 -0.3
v 0 2.7 -0.1
v 0 2.7 -0.3
v 0.1 2 0
v 0.1 2 -0.1
v 0.1 2 -0.3
v 0.1 2 -0.4
v 0.1 2.1 0
v 0.1 2.1 -0.1
v 0.1 2.1 -0.3
v 0.1 2.1 -0.4
v 0.1 2.3 0
v 0.1 2.3 -0.1
v 0.1 2.3 -0.3
v 0.1 2.3 -0.4
v 0.1 2.4 0
v 0.1 2.4 -0.1
v 0.1 2.4 -0.3
v 0.1 2.4 -0.4
v 0.1 2.6 0
v 0.1 2.6 -0.1
v 0.1 2.6 -0.3
v 0.1 2.6 -0.4
v 0.1 2.7 0
v 0.1 2.7 -0.1
v 0.1 2.7 -0.3
v 0.1 2.7 -0.4
v 0.1 2.8 -0.1
v 0.1 2.8 -0.3
v 0.3 2 -0.1
v 0.3 2 -0.3
v 0.3 2.2 -0.1
v 0.3 2.2 -0.2
v 0.3 2.2 -0.3
v 0.3 2.4 -0.2
v 0.3 2.4 -0.3
v 0.1 2 -0.1
v 0.1 2 -0.3
v 0.1 2.2 -0.1
v 0.1 2.2 -0.3
v 0.2 2.2 -0.2
v 0.2 2.2 -0.3
v 0.2 2.4 -0.2
v 0.2 2.4 -0.3
v 0.3 2 0
v 0.3 2 -0.1
v 0.3 2 -0.3
v 0.3 2 -0.4
v 0.3 2.1 0
v 0.3 2.1 -0.1
v 0.3 2.1 -0.3
v 0.3 2.1 -0.4
v 0.3 2.3 0
v 0.3 2.3 -0.1
v 0.3 2.3 -0.3
v 0.3 2.3 -0.4
v 0.3 2.4 0
v 0.3 2.4 -0.1
v 0.3 2.4 -0.3
v 0.3 2.4 -0.4
v 0.3 2.6 0
v 0.3 2.6 -0.1
v 0.3 2.6 -0.3
v 0.3 2.6 -0.4
v 0.3 2.7 0
v 0.3 2.7 -0.1
v 0.3 2.7 -0.2
v 0.3 2.7 -0.3
v 0.3 2.7 -0.4
v 0.3 2.8 -0.1
v 0.3 2.8 -0.2
v 0.3 2.8 -0.3
v 0.4 2 -0.1
v 0.4 2 -0.3
v 0.4 2.1 0
v 0.4 2.1 -0.1
v 0.4 2.1 -0.3
v 0.4 2.1 -0.4
v 0.4 2.2 0
v 0.4 2.2 -0.4
v 0.4 2.3 0
v 0.4 2.3 -0.1
v 0.4 2.3 -0.3
v 0.4 2.3 -0.4
v 0.4 2.4 -0.1
v 0.4 2.4 -0.3
v 0.4 2.6 -0.1
v 0.4 2.6 -0.3
v 0.4 2.7 -0.1
v 0.4 2.7 -0.3
v 0 2.1 0
v 0 2.2 0
v 0 2.3 0
v 0.1 2 0
v 0.1 2.1 0
v 0.1 2.3 0
v 0.1 2.4 0
v 0.1 2.6 0
v 0.1 2.7 0
v 0.3 2 0
v 0.3 2.1 0
v 0.3 2.3 0
v 0.3 2.4 0
v 0.3 2.6 0
v 0.3 2.7 0
v 0.4 2.1 0
v 0.4 2.2 0
v 0.4 2.3 0
v 0 2 -0.1
v 0 2.1 -0.1
v 0 2.3 -0.1
v 0 2.4 -0.1
v 0 2.6 -0.1
v 0 2.7 -0.1
v 0.1 2 -0.1
v 0.1 2.1 -0.1
v 0.1 2.3 -0.1
v 0.1 2.4 -0.1
v 0.1 2.6 -0.1
v 0.1 2.7 -0.1
v 0.1 2.8 -0.1
v 0.2 2.7 -0.1
v 0.2 2.8 -0.1
v 0.3 2 -0.1
v 0.3 2.1 -0.1
v 0.3 2.3 -0.1
v 0.3 2.4 -0.1
v 0.3 2.6 -0.1
v 0.3 2.7 -0.1
v 0.3 2.8 -0.1
v 0.4 2 -0.1
v 0.4 2.1 -0.1
v 0.4 2.3 -0.1
v 0.4 2.4 -0.1
v 0.4 2.6 -0.1
v 0.4 2.7 -0.1
v 0.1 2 -0.3
v 0.1 2.2 -0.3
v 0.2 2.2 -0.3
v 0.2 2.4 -0.3
v 0.3 2 -0.3
v 0.3 2.2 -0.3
v 0.3 2.4 -0.3
v 0.1 2 -0.1
v 0.1 2.2 -0.1
v 0.3 2 -0.1
v 0.3 2.2 -0.1
v 0.2 2.2 -0.2
v 0.2 2.4 -0.2
v 0.3 2.2 -0.2
v 0.3 2.4 -0.2
v 0 2 -0.3
v 0 2.1 -0.3
v 0 2.3 -0.3
v 0 2.4 -0.3
v 0 2.6 -0.3
v 0 2.7 -0.3
v 0.1 2 -0.3
v 0.1 2.1 -0.3
v 0.1 2.3 -0.3
v 0.1 2.4 -0.3
v 0.1 2.6 -0.3
v 0.1 2.7 -0.3
v 0.1 2.8 -0.3
v 0.3 2 -0.3
v 0.3 2.1 -0.3
v 0.3 2.3 -0.3
v 0.3 2.4 -0.3
v 0.3 2.6 -0.3
v 0.3 2.7 -0.3
v 0.3 2.8 -0.3
v 0.4 2 -0.3
v 0.4 2.1 -0.3
v 0.4 2.3 -0.3
v 0.4 2.4 -0.3
v 0.4 2.6 -0.3
v 0.4 2.7 -0.3
v 0 2.1 -0.4
v 0 2.2 -0.4
v 0 2.3 -0.4
v 0.1 2 -0.4
v 0.1 2.1 -0.4
v 0.1 2.3 -0.4
v 0.1 2.4 -0.4
v 0.1 2.6 -0.4
v 0.1 2.7 -0.4
v 0.3 2 -0.4
v 0.3 2.1 -0.4
v 0.3 2.3 -0.4
v 0.3 2.4 -0.4
v 0.3 2.6 -0.4
v 0.3 2.7 -0.4
v 0.4 2.1 -0.4
v 0.4 2.2 -0.4
v 0.4 2.3 -0.4
v 0.1 2 0
v 0.3 2 0
v 0 2 -0.1
v 0.1 2 -0.1
v 0.3 2 -0.1
v 0.4 2 -0.1
v 0 2 -0.3
v 0.1 2 -0.3
v 0.3 2 -0.3
v 0.4 2 -0.3
v 0.1 2 -0.4
v 0.3 2 -0.4
v 0 2.1 0
v 0.1 2.1 0
v 0.3 2.1 0
v 0.4 2.1 0
v 0 2.1 -0.1
v 0.1 2.1 -0.1
v 0.3 2.1 -0.1
v 0.4 2.1 -0.1
v 0 2.1 -0.3
v 0.1 2.1 -0.3
v 0.3 2.1 -0.3
v 0.4 2.1 -0.3
v 0 2.1 -0.4
v 0.1 2.1 -0.4
v 0.3 2.1 -0.4
v 0.4 2.1 -0.4
v 0.1 2.2 -0.1
v 0.3 2.2 -0.1
v 0.2 2.2 -0.2
v 0.3 2.2 -0.2
v 0.1 2.2 -0.3
v 0.2 2.2 -0.3
v 0.2 2.4 -0.2
v 0.3 2.4 -0.2
v 0.2 2.4 -0.3
v 0.3 2.4 -0.3
v 0.1 2.6 0
v 0.3 2.6 0
v 0 2.6 -0.1
v 0.1 2.6 -0.1
v 0.3 2.6 -0.1
v 0.4 2.6 -0.1
v 0 2.6 -0.3
v 0.1 2.6 -0.3
v 0.3 2.6 -0.3
v 0.4 2.6 -0.3
v 0.1 2.6 -0.4
v 0.3 2.6 -0.4
v 0 2.3 0
v 0.1 2.3 0
v 0.3 2.3 0
v 0.4 2.3 0
v 0 2.3 -0.1
v 0.1 2.3 -0.1
v 0.3 2.3 -0.1
v 0.4 2.3 -0.1
v 0 2.3 -0.3
v 0.1 2.3 -0.3
v 0.3 2.3 -0.3
v 0.4 2.3 -0.3
v 0 2.3 -0.4
v 0.1 2.3 -0.4
v 0.3 2.3 -0.4
v 0.4 2.3 -0.4
v 0.1 2.4 0
v 0.3 2.4 0
v 0 2.4 -0.1
v 0.1 2.4 -0.1
v 0.3 2.4 -0.1
v 0.4 2.4 -0.1
v 0 2.4 -0.3
v 0.1 2.4 -0.3
v 0.3 2.4 -0.3
v 0.4 2.4 -0.3
v 0.1 2.4 -0.4
v 0.3 2.4 -0.4
v 0.1 2.7 0
v 0.3 2.7 0
v 0 2.7 -0.1
v 0.1 2.7 -0.1
v 0.2 2.7 -0.1
v 0.3 2.7 -0.1
v 0.4 2.7 -0.1
v 0.3 2.7 -0.2
v 0 2.7 -0.3
v 0.1 2.7 -0.3
v 0.3 2.7 -0.3
v 0.4 2.7 -0.3
v 0.1 2.7 -0.4
v 0.3 2.7 -0.4
v 0.1 2.8 -0.1
v 0.2 2.8 -0.1
v 0.3 2.8 -0.1
v 0.2 2.8 -0.2
v 0.3 2.8 -0.2
v 0.1 2.8 -0.3
v 0.3 2.8 -0.3

# faces
f 4/3/1 2/3/1 1/3/1
f 5/3/1 2/3/1 4/3/1
f 7/3/1 4/3/1 3/3/1
f 7/3/1 6/3/1 5/3/1
f 7/3/1 5/3/1 4/3/1
f 8/3/1 6/3/1 7/3/1
f 9/4/1 8/4/1 7/4/1
f 10/4/1 8/4/1 9/4/1
f 11/4/1 8/4/1 10/4/1
f 12/4/1 8/4/1 11/4/1
f 13/4/1 11/4/1 10/4/1
f 14/4/1 11/4/1 13/4/1
f 17/4/1 16/4/1 15/4/1
f 18/4/1 16/4/1 17/4/1
f 23/3/1 20/3/1 19/3/1
f 24/3/1 20/3/1 23/3/1
f 25/3/1 22/3/1 21/3/1
f 26/3/1 22/3/1 25/3/1
f 31/4/1 28/4/1 27/4/1
f 32/4/1 28/4/1 31/4/1
f 33/4/1 30/4/1 29/4/1
f 34/4/1 30/4/1 33/4/1
f 36/5/1 33/5/1 32/5/1
f 37/5/1 33/5/1 36/5/1
f 39/4/1 36/4/1 35/4/1
f 40/4/1 36/4/1 39/4/1
f 41/4/1 38/4/1 37/4/1
f 42/4/1 38/4/1 41/4/1
f 43/1/1 41/1/1 40/1/1
f 44/1/1 41/1/1 43/1/1
f 47/3/1 46/3/1 45/3/1
f 48/3/1 46/3/1 47/3/1
f 49/3/1 46/3/1 48/3/1
f 50/4/1 49/4/1 48/4/1
f 51/4/1 49/4/1 50/4/1
f 52/3/2 53/3/2 54/3/2
f 54/3/2 53/3/2 55/3/2
f 56/4/2 57/4/2 58/4/2
f 58/4/2 57/4/2 59/4/2
f 60/3/2 61/3/2 64/3/2
f 64/3/2 61/3/2 65/3/2
f 62/3/2 63/3/2 66/3/2
f 66/3/2 63/3/2 67/3/2
f 68/4/2 69/4/2 72/4/2
f 72/4/2 69/4/2 73/4/2
f 70/4/2 71/4/2 74/4/2
f 74/4/2 71/4/2 75/4/2
f 73/5/2 74/5/2 77/5/2
f 77/5/2 74/5/2 78/5/2
f 76/4/2 77/4/2 80/4/2
f 80/4/2 77/4/2 81/4/2
f 78/4/2 79/4/2 83/4/2
f 83/4/2 79/4/2 84/4/2
f 81/2/2 82/2/2 85/2/2
f 82/1/2 83/1/2 86/1/2
f 85/2/2 82/2/2 86/2/2
f 86/1/2 83/1/2 87/1/2
f 88/3/2 89/3/2 91/3/2
f 91/3/2 89/3/2 92/3/2
f 90/3/2 91/3/2 94/3/2
f 92/3/2 93/3/2 94/3/2
f 91/3/2 92/3/2 94/3/2
f 94/3/2 93/3/2 95/3/2
f 94/4/2 95/4/2 96/4/2
f 96/4/2 95/4/2 97/4/2
f 97/4/2 95/4/2 98/4/2
f 98/4/2 95/4/2 99/4/2
f 97/4/2 98/4/2 100/4/2
f 100/4/2 98/4/2 101/4/2
f 102/4/2 103/4/2 104/4/2
f 104/4/2 103/4/2 105/4/2
f 110/3/3 107/3/3 106/3/3
f 111/4/3 108/4/3 107/4/3
f 115/3/3 110/3/3 109/3/3
f 116/3/3 107/3/3 110/3/3
f 116/3/3 110/3/3 115/3/3
f 117/4/3 111/4/3 107/4/3
f 117/4/3 112/4/3 111/4/3
f 118/4/3 112/4/3 117/4/3
f 119/4/3 114/4/3 113/4/3
f 120/4/3 114/4/3 119/4/3
f 121/3/3 107/3/3 116/3/3
f 122/4/3 117/4/3 107/4/3
f 122/3/3 107/3/3 121/3/3
f 123/4/3 117/4/3 122/4/3
f 130/3/3 125/3/3 124/3/3
f 131/3/3 125/3/3 130/3/3
f 132/4/3 127/4/3 126/4/3
f 133/4/3 127/4/3 132/4/3
f 134/4/3 129/4/3 128/4/3
f 135/4/3 129/4/3 134/4/3
f 137/1/3 136/1/3 135/1/3
f 138/1/3 136/1/3 137/1/3
f 142/5/3 134/5/3 133/5/3
f 143/5/3 134/5/3 142/5/3
f 144/2/3 138/2/3 137/2/3
f 145/2/3 138/2/3 144/2/3
f 146/3/3 140/3/3 139/3/3
f 147/3/3 140/3/3 146/3/3
f 148/4/3 142/4/3 141/4/3
f 149/4/3 142/4/3 148/4/3
f 150/4/3 144/4/3 143/4/3
f 151/4/3 144/4/3 150/4/3
f 154/3/3 153/3/3 152/3/3
f 156/3/3 154/3/3 152/3/3
f 157/4/3 155/4/3 154/4/3
f 157/3/3 154/3/3 156/3/3
f 158/4/3 155/4/3 157/4/3
f 159/3/4 160/3/4 161/3/4
f 161/3/4 160/3/4 162/3/4
f 163/4/4 164/4/4 165/4/4
f 165/4/4 164/4/4 166/4/4
f 167/3/4 168/3/4 173/3/4
f 173/3/4 168/3/4 174/3/4
f 169/4/4 170/4/4 175/4/4
f 175/4/4 170/4/4 176/4/4
f 171/4/4 172/4/4 177/4/4
f 177/4/4 172/4/4 178/4/4
f 176/5/4 177/5/4 183/5/4
f 183/5/4 177/5/4 184/5/4
f 178/1/4 179/1/4 185/1/4
f 185/1/4 179/1/4 186/1/4
f 180/3/4 181/3/4 187/3/4
f 187/3/4 181/3/4 188/3/4
f 182/4/4 183/4/4 189/4/4
f 189/4/4 183/4/4 190/4/4
f 184/4/4 185/4/4 191/4/4
f 191/4/4 185/4/4 192/4/4
f 193/3/4 194/3/4 197/3/4
f 194/4/4 195/4/4 198/4/4
f 196/3/4 197/3/4 202/3/4
f 197/3/4 194/3/4 203/3/4
f 202/3/4 197/3/4 203/3/4
f 194/4/4 198/4/4 204/4/4
f 198/4/4 199/4/4 204/4/4
f 204/4/4 199/4/4 205/4/4
f 200/4/4 201/4/4 206/4/4
f 206/4/4 201/4/4 207/4/4
f 203/3/4 194/3/4 208/3/4
f 194/4/4 204/4/4 209/4/4
f 208/3/4 194/3/4 209/3/4
f 209/4/4 204/4/4 210/4/4
f 214/3/5 212/3/5 211/3/5
f 215/3/5 212/3/5 214/3/5
f 217/3/5 214/3/5 213/3/5
f 218/3/5 214/3/5 217/3/5
f 219/3/5 216/3/5 215/3/5
f 220/3/5 216/3/5 219/3/5
f 221/3/5 219/3/5 218/3/5
f 222/3/5 219/3/5 221/3/5
f 227/3/5 224/3/5 223/3/5
f 228/3/5 224/3/5 227/3/5
f 229/3/5 226/3/5 225/3/5
f 230/3/5 226/3/5 229/3/5
f 235/3/5 232/3/5 231/3/5
f 236/3/5 232/3/5 235/3/5
f 237/3/5 234/3/5 233/3/5
f 238/3/5 234/3/5 237/3/5
f 241/4/5 240/4/5 239/4/5
f 242/4/5 240/4/5 241/4/5
f 243/4/5 241/4/5 239/4/5
f 244/4/5 241/4/5 243/4/5
f 247/5/5 246/5/5 245/5/5
f 248/5/5 246/5/5 247/5/5
f 252/4/5 250/4/5 249/4/5
f 253/4/5 250/4/5 252/4/5
f 255/4/5 252/4/5 251/4/5
f 256/4/5 252/4/5 255/4/5
f 257/4/5 254/4/5 253/4/5
f 258/4/5 254/4/5 257/4/5
f 259/4/5 257/4/5 256/4/5
f 260/4/5 257/4/5 259/4/5
f 261/4/6 262/4/6 265/4/6
f 265/4/6 262/4/6 266/4/6
f 263/4/6 264/4/6 267/4/6
f 267/4/6 264/4/6 268/4/6
f 269/4/6 270/4/6 273/4/6
f 273/4/6 270/4/6 274/4/6
f 271/4/6 272/4/6 275/4/6
f 275/4/6 272/4/6 276/4/6
f 277/4/6 278/4/6 280/4/6
f 280/4/6 278/4/6 281/4/6
f 279/4/6 280/4/6 283/4/6
f 283/4/6 280/4/6 284/4/6
f 281/4/6 282/4/6 285/4/6
f 285/4/6 282/4/6 286/4/6
f 284/4/6 285/4/6 287/4/6
f 287/4/6 285/4/6 288/4/6
f 289/4/6 290/4/6 292/4/6
f 292/4/6 290/4/6 293/4/6
f 293/4/6 290/4/6 294/4/6
f 294/4/6 295/4/6 296/4/6
f 291/4/6 292/4/6 297/4/6
f 297/4/6 292/4/6 298/4/6
f 296/4/6 295/4/6 299/4/6
f 299/4/6 295/4/6 300/4/6
f 298/4/6 299/4/6 301/4/6
f 301/4/6 299/4/6 302/4/6
f 303/1/6 304/1/6 306/1/6
f 304/2/6 305/2/6 306/2/6
f 306/2/6 305/2/6 307/2/6
f 303/1/6 306/1/6 308/1/6
f 306/1/6 307/1/6 308/1/6
f 308/1/6 307/1/6 309/1/6
