# MagicaVoxel @ Ephtracy

# group
o 

# material
mtllib carne.mtl
usemtl palette

# normals
vn -1 0 0
vn 1 0 0
vn 0 0 1
vn 0 0 -1
vn 0 -1 0
vn 0 1 0

# texcoords
vt 0.0136719 0.5
vt 0.0175781 0.5
vt 0.173828 0.5

# verts
v 0 2.2 -0.2
v 0 2.2 -0.3
v 0 2.3 -0.2
v 0 2.3 -0.3
v 0.1 2.1 -0.1
v 0.1 2.1 -0.4
v 0.1 2.2 -0.2
v 0.1 2.2 -0.3
v 0.1 2.3 -0.2
v 0.1 2.3 -0.3
v 0.1 2.4 -0.1
v 0.1 2.4 -0.2
v 0.1 2.4 -0.3
v 0.1 2.4 -0.4
v 0.2 2 0
v 0.2 2 -0.1
v 0.2 2 -0.2
v 0.2 2 -0.3
v 0.2 2 -0.5
v 0.2 2.1 0
v 0.2 2.1 -0.1
v 0.2 2.1 -0.2
v 0.2 2.1 -0.3
v 0.2 2.1 -0.4
v 0.2 2.2 -0.4
v 0.2 2.2 -0.5
v 0.2 2.3 -0.4
v 0.2 2.3 -0.5
v 0.2 2.4 0
v 0.2 2.4 -0.1
v 0.2 2.4 -0.2
v 0.2 2.4 -0.3
v 0.2 2.4 -0.4
v 0.2 2.4 -0.5
v 0.2 2.5 0
v 0.2 2.5 -0.1
v 0.2 2.5 -0.3
v 0.2 2.5 -0.5
v 1.1 2.2 -0.1
v 1.1 2.2 -0.2
v 1.1 2.2 -0.3
v 1.1 2.2 -0.4
v 1.1 2.3 -0.1
v 1.1 2.3 -0.2
v 1.1 2.3 -0.3
v 1.1 2.3 -0.4
v 0.7 2 0
v 0.7 2 -0.1
v 0.7 2 -0.4
v 0.7 2 -0.5
v 0.7 2.1 0
v 0.7 2.1 -0.1
v 0.7 2.1 -0.4
v 0.7 2.1 -0.5
v 0.7 2.3 -0.1
v 0.7 2.3 -0.4
v 0.7 2.4 0
v 0.7 2.4 -0.1
v 0.7 2.4 -0.2
v 0.7 2.4 -0.3
v 0.7 2.4 -0.4
v 0.7 2.4 -0.5
v 0.7 2.5 0
v 0.7 2.5 -0.1
v 0.7 2.5 -0.4
v 0.7 2.5 -0.5
v 0.8 2.1 -0.1
v 0.8 2.1 -0.4
v 0.8 2.2 -0.2
v 0.8 2.2 -0.3
v 0.8 2.3 -0.1
v 0.8 2.3 -0.2
v 0.8 2.3 -0.3
v 0.8 2.3 -0.4
v 0.8 2.4 -0.1
v 0.8 2.4 -0.2
v 0.8 2.4 -0.3
v 0.8 2.4 -0.4
v 1.1 2.2 -0.2
v 1.1 2.2 -0.3
v 1.1 2.3 -0.2
v 1.1 2.3 -0.3
v 1.2 2.2 -0.1
v 1.2 2.2 -0.2
v 1.2 2.2 -0.3
v 1.2 2.2 -0.4
v 1.2 2.3 -0.1
v 1.2 2.3 -0.2
v 1.2 2.3 -0.3
v 1.2 2.3 -0.4
v 0.2 2 0
v 0.2 2.1 0
v 0.2 2.4 0
v 0.2 2.5 0
v 0.3 2.1 0
v 0.3 2.2 0
v 0.3 2.4 0
v 0.3 2.5 0
v 0.4 2 0
v 0.4 2.2 0
v 0.4 2.3 0
v 0.5 2.2 0
v 0.5 2.3 0
v 0.5 2.4 0
v 0.5 2.5 0
v 0.6 2 0
v 0.6 2.1 0
v 0.7 2 0
v 0.7 2.1 0
v 0.7 2.4 0
v 0.7 2.5 0
v 0.1 2.1 -0.1
v 0.1 2.4 -0.1
v 0.2 2.1 -0.1
v 0.2 2.4 -0.1
v 0.7 2.1 -0.1
v 0.7 2.3 -0.1
v 0.7 2.4 -0.1
v 0.8 2.1 -0.1
v 0.8 2.3 -0.1
v 0.8 2.4 -0.1
v 1.1 2.2 -0.1
v 1.1 2.3 -0.1
v 1.2 2.2 -0.1
v 1.2 2.3 -0.1
v 0 2.2 -0.2
v 0 2.3 -0.2
v 0.1 2.2 -0.2
v 0.1 2.3 -0.2
v 0.8 2.2 -0.2
v 0.8 2.3 -0.2
v 1.1 2.2 -0.2
v 1.1 2.3 -0.2
v 1.1 2.2 -0.3
v 1.1 2.3 -0.3
v 1.2 2.2 -0.3
v 1.2 2.3 -0.3
v 1.1 2.2 -0.2
v 1.1 2.3 -0.2
v 1.2 2.2 -0.2
v 1.2 2.3 -0.2
v 0 2.2 -0.3
v 0 2.3 -0.3
v 0.1 2.2 -0.3
v 0.1 2.3 -0.3
v 0.8 2.2 -0.3
v 0.8 2.3 -0.3
v 1.1 2.2 -0.3
v 1.1 2.3 -0.3
v 0.1 2.1 -0.4
v 0.1 2.4 -0.4
v 0.2 2.1 -0.4
v 0.2 2.2 -0.4
v 0.2 2.3 -0.4
v 0.2 2.4 -0.4
v 0.7 2.1 -0.4
v 0.7 2.3 -0.4
v 0.7 2.4 -0.4
v 0.8 2.1 -0.4
v 0.8 2.3 -0.4
v 0.8 2.4 -0.4
v 1.1 2.2 -0.4
v 1.1 2.3 -0.4
v 1.2 2.2 -0.4
v 1.2 2.3 -0.4
v 0.2 2 -0.5
v 0.2 2.2 -0.5
v 0.2 2.3 -0.5
v 0.2 2.4 -0.5
v 0.2 2.5 -0.5
v 0.3 2 -0.5
v 0.3 2.1 -0.5
v 0.3 2.2 -0.5
v 0.3 2.3 -0.5
v 0.3 2.4 -0.5
v 0.3 2.5 -0.5
v 0.4 2 -0.5
v 0.4 2.1 -0.5
v 0.4 2.4 -0.5
v 0.4 2.5 -0.5
v 0.5 2 -0.5
v 0.5 2.2 -0.5
v 0.5 2.4 -0.5
v 0.5 2.5 -0.5
v 0.6 2.1 -0.5
v 0.6 2.2 -0.5
v 0.6 2.4 -0.5
v 0.6 2.5 -0.5
v 0.7 2 -0.5
v 0.7 2.1 -0.5
v 0.7 2.4 -0.5
v 0.7 2.5 -0.5
v 0.2 2 0
v 0.4 2 0
v 0.6 2 0
v 0.7 2 0
v 0.2 2 -0.1
v 0.4 2 -0.1
v 0.6 2 -0.1
v 0.7 2 -0.1
v 0.2 2 -0.2
v 0.3 2 -0.2
v 0.2 2 -0.3
v 0.3 2 -0.3
v 0.3 2 -0.4
v 0.4 2 -0.4
v 0.5 2 -0.4
v 0.7 2 -0.4
v 0.2 2 -0.5
v 0.3 2 -0.5
v 0.4 2 -0.5
v 0.5 2 -0.5
v 0.7 2 -0.5
v 0.1 2.1 -0.1
v 0.2 2.1 -0.1
v 0.7 2.1 -0.1
v 0.8 2.1 -0.1
v 0.2 2.1 -0.2
v 0.2 2.1 -0.3
v 0.1 2.1 -0.4
v 0.2 2.1 -0.4
v 0.7 2.1 -0.4
v 0.8 2.1 -0.4
v 1.1 2.2 -0.1
v 1.2 2.2 -0.1
v 0 2.2 -0.2
v 0.1 2.2 -0.2
v 0.8 2.2 -0.2
v 1.1 2.2 -0.2
v 1.2 2.2 -0.2
v 0 2.2 -0.3
v 0.1 2.2 -0.3
v 0.8 2.2 -0.3
v 1.1 2.2 -0.3
v 1.2 2.2 -0.3
v 1.1 2.2 -0.4
v 1.2 2.2 -0.4
v 1.1 2.3 -0.1
v 1.2 2.3 -0.1
v 0 2.3 -0.2
v 0.1 2.3 -0.2
v 0.8 2.3 -0.2
v 1.1 2.3 -0.2
v 1.2 2.3 -0.2
v 0 2.3 -0.3
v 0.1 2.3 -0.3
v 0.8 2.3 -0.3
v 1.1 2.3 -0.3
v 1.2 2.3 -0.3
v 1.1 2.3 -0.4
v 1.2 2.3 -0.4
v 0.1 2.4 -0.1
v 0.2 2.4 -0.1
v 0.7 2.4 -0.1
v 0.8 2.4 -0.1
v 0.1 2.4 -0.2
v 0.2 2.4 -0.2
v 0.7 2.4 -0.2
v 0.8 2.4 -0.2
v 0.1 2.4 -0.3
v 0.2 2.4 -0.3
v 0.7 2.4 -0.3
v 0.8 2.4 -0.3
v 0.1 2.4 -0.4
v 0.2 2.4 -0.4
v 0.7 2.4 -0.4
v 0.8 2.4 -0.4
v 0.2 2.5 0
v 0.3 2.5 0
v 0.5 2.5 0
v 0.7 2.5 0
v 0.2 2.5 -0.1
v 0.3 2.5 -0.1
v 0.6 2.5 -0.1
v 0.7 2.5 -0.1
v 0.3 2.5 -0.2
v 0.4 2.5 -0.2
v 0.5 2.5 -0.2
v 0.6 2.5 -0.2
v 0.2 2.5 -0.3
v 0.3 2.5 -0.3
v 0.4 2.5 -0.3
v 0.4 2.5 -0.4
v 0.5 2.5 -0.4
v 0.6 2.5 -0.4
v 0.7 2.5 -0.4
v 0.2 2.5 -0.5
v 0.3 2.5 -0.5
v 0.4 2.5 -0.5
v 0.5 2.5 -0.5
v 0.6 2.5 -0.5
v 0.7 2.5 -0.5

# faces
f 3/3/1 2/3/1 1/3/1
f 4/3/1 2/3/1 3/3/1
f 7/1/1 6/1/1 5/1/1
f 8/1/1 6/1/1 7/1/1
f 9/1/1 7/1/1 5/1/1
f 10/1/1 6/1/1 8/1/1
f 11/1/1 9/1/1 5/1/1
f 12/2/1 10/2/1 9/2/1
f 12/1/1 9/1/1 11/1/1
f 13/1/1 6/1/1 10/1/1
f 13/2/1 10/2/1 12/2/1
f 14/1/1 6/1/1 13/1/1
f 20/2/1 16/2/1 15/2/1
f 21/1/1 17/1/1 16/1/1
f 21/2/1 16/2/1 20/2/1
f 22/2/1 18/2/1 17/2/1
f 22/1/1 17/1/1 21/1/1
f 23/1/1 19/1/1 18/1/1
f 23/2/1 18/2/1 22/2/1
f 24/1/1 19/1/1 23/1/1
f 25/1/1 19/1/1 24/1/1
f 26/1/1 19/1/1 25/1/1
f 27/2/1 26/2/1 25/2/1
f 28/2/1 26/2/1 27/2/1
f 29/1/1 21/1/1 20/1/1
f 30/1/1 21/1/1 29/1/1
f 33/1/1 28/1/1 27/1/1
f 34/1/1 28/1/1 33/1/1
f 35/2/1 30/2/1 29/2/1
f 36/1/1 32/1/1 31/1/1
f 36/2/1 30/2/1 35/2/1
f 36/1/1 31/1/1 30/1/1
f 37/2/1 34/2/1 33/2/1
f 37/1/1 32/1/1 36/1/1
f 37/2/1 33/2/1 32/2/1
f 38/2/1 34/2/1 37/2/1
f 43/3/1 40/3/1 39/3/1
f 44/3/1 40/3/1 43/3/1
f 45/3/1 42/3/1 41/3/1
f 46/3/1 42/3/1 45/3/1
f 47/2/2 48/2/2 51/2/2
f 48/1/2 49/1/2 52/1/2
f 51/2/2 48/2/2 52/2/2
f 49/2/2 50/2/2 53/2/2
f 52/1/2 49/1/2 53/1/2
f 53/2/2 50/2/2 54/2/2
f 51/1/2 52/1/2 55/1/2
f 53/1/2 54/1/2 56/1/2
f 51/1/2 55/1/2 57/1/2
f 57/1/2 55/1/2 58/1/2
f 56/1/2 54/1/2 61/1/2
f 61/1/2 54/1/2 62/1/2
f 57/2/2 58/2/2 63/2/2
f 59/1/2 60/1/2 64/1/2
f 63/2/2 58/2/2 64/2/2
f 58/1/2 59/1/2 64/1/2
f 60/1/2 61/1/2 64/1/2
f 61/2/2 62/2/2 65/2/2
f 64/1/2 61/1/2 65/1/2
f 65/2/2 62/2/2 66/2/2
f 67/1/2 68/1/2 69/1/2
f 69/1/2 68/1/2 70/1/2
f 67/1/2 69/1/2 71/1/2
f 71/1/2 69/1/2 72/1/2
f 70/1/2 68/1/2 73/1/2
f 73/1/2 68/1/2 74/1/2
f 71/2/2 72/2/2 75/2/2
f 72/1/2 73/1/2 76/1/2
f 75/2/2 72/2/2 76/2/2
f 73/2/2 74/2/2 77/2/2
f 76/1/2 73/1/2 77/1/2
f 77/2/2 74/2/2 78/2/2
f 79/3/2 80/3/2 81/3/2
f 81/3/2 80/3/2 82/3/2
f 83/3/2 84/3/2 87/3/2
f 87/3/2 84/3/2 88/3/2
f 85/3/2 86/3/2 89/3/2
f 89/3/2 86/3/2 90/3/2
f 95/2/3 92/2/3 91/2/3
f 95/1/3 93/1/3 92/1/3
f 96/1/3 93/1/3 95/1/3
f 97/2/3 94/2/3 93/2/3
f 97/1/3 93/1/3 96/1/3
f 98/2/3 94/2/3 97/2/3
f 99/2/3 96/2/3 95/2/3
f 99/2/3 95/2/3 91/2/3
f 100/1/3 98/1/3 97/1/3
f 100/2/3 96/2/3 99/2/3
f 100/1/3 97/1/3 96/1/3
f 101/1/3 98/1/3 100/1/3
f 102/1/3 100/1/3 99/1/3
f 102/2/3 101/2/3 100/2/3
f 103/1/3 98/1/3 101/1/3
f 103/2/3 101/2/3 102/2/3
f 104/1/3 98/1/3 103/1/3
f 105/1/3 98/1/3 104/1/3
f 106/1/3 102/1/3 99/1/3
f 106/1/3 103/1/3 102/1/3
f 106/1/3 104/1/3 103/1/3
f 107/1/3 104/1/3 106/1/3
f 108/2/3 107/2/3 106/2/3
f 109/1/3 104/1/3 107/1/3
f 109/2/3 107/2/3 108/2/3
f 110/2/3 105/2/3 104/2/3
f 110/1/3 104/1/3 109/1/3
f 111/2/3 105/2/3 110/2/3
f 114/1/3 113/1/3 112/1/3
f 115/1/3 113/1/3 114/1/3
f 119/1/3 117/1/3 116/1/3
f 120/2/3 118/2/3 117/2/3
f 120/1/3 117/1/3 119/1/3
f 121/2/3 118/2/3 120/2/3
f 124/3/3 123/3/3 122/3/3
f 125/3/3 123/3/3 124/3/3
f 128/3/3 127/3/3 126/3/3
f 129/3/3 127/3/3 128/3/3
f 132/3/3 131/3/3 130/3/3
f 133/3/3 131/3/3 132/3/3
f 136/3/3 135/3/3 134/3/3
f 137/3/3 135/3/3 136/3/3
f 138/3/4 139/3/4 140/3/4
f 140/3/4 139/3/4 141/3/4
f 142/3/4 143/3/4 144/3/4
f 144/3/4 143/3/4 145/3/4
f 146/3/4 147/3/4 148/3/4
f 148/3/4 147/3/4 149/3/4
f 150/1/4 151/1/4 152/1/4
f 152/1/4 151/1/4 153/1/4
f 153/1/4 151/1/4 154/1/4
f 154/1/4 151/1/4 155/1/4
f 156/1/4 157/1/4 159/1/4
f 157/2/4 158/2/4 160/2/4
f 159/1/4 157/1/4 160/1/4
f 160/2/4 158/2/4 161/2/4
f 162/3/4 163/3/4 164/3/4
f 164/3/4 163/3/4 165/3/4
f 166/1/4 167/1/4 171/1/4
f 171/1/4 167/1/4 172/1/4
f 167/2/4 168/2/4 173/2/4
f 172/1/4 167/1/4 173/1/4
f 168/1/4 169/1/4 174/1/4
f 173/2/4 168/2/4 174/2/4
f 169/2/4 170/2/4 175/2/4
f 174/1/4 169/1/4 175/1/4
f 175/2/4 170/2/4 176/2/4
f 171/2/4 172/2/4 177/2/4
f 173/1/4 174/1/4 178/1/4
f 177/2/4 172/2/4 178/2/4
f 172/1/4 173/1/4 178/1/4
f 175/1/4 176/1/4 178/1/4
f 174/1/4 175/1/4 178/1/4
f 178/1/4 176/1/4 179/1/4
f 179/1/4 176/1/4 180/1/4
f 177/1/4 178/1/4 181/1/4
f 178/1/4 179/1/4 181/1/4
f 181/1/4 179/1/4 182/1/4
f 179/2/4 180/2/4 183/2/4
f 182/1/4 179/1/4 183/1/4
f 183/2/4 180/2/4 184/2/4
f 181/2/4 182/2/4 185/2/4
f 182/1/4 183/1/4 186/1/4
f 185/2/4 182/2/4 186/2/4
f 183/1/4 184/1/4 186/1/4
f 186/1/4 184/1/4 187/1/4
f 187/1/4 184/1/4 188/1/4
f 181/2/4 185/2/4 189/2/4
f 185/1/4 186/1/4 190/1/4
f 189/2/4 185/2/4 190/2/4
f 186/1/4 187/1/4 190/1/4
f 187/2/4 188/2/4 191/2/4
f 190/1/4 187/1/4 191/1/4
f 191/2/4 188/2/4 192/2/4
f 197/2/5 194/2/5 193/2/5
f 198/1/5 195/1/5 194/1/5
f 198/2/5 194/2/5 197/2/5
f 199/2/5 196/2/5 195/2/5
f 199/1/5 195/1/5 198/1/5
f 200/2/5 196/2/5 199/2/5
f 201/1/5 198/1/5 197/1/5
f 201/1/5 199/1/5 198/1/5
f 201/1/5 200/1/5 199/1/5
f 202/1/5 200/1/5 201/1/5
f 203/2/5 202/2/5 201/2/5
f 204/1/5 200/1/5 202/1/5
f 204/2/5 202/2/5 203/2/5
f 205/1/5 204/1/5 203/1/5
f 205/1/5 200/1/5 204/1/5
f 206/1/5 200/1/5 205/1/5
f 207/1/5 200/1/5 206/1/5
f 208/1/5 200/1/5 207/1/5
f 209/1/5 205/1/5 203/1/5
f 210/2/5 206/2/5 205/2/5
f 210/1/5 205/1/5 209/1/5
f 211/1/5 207/1/5 206/1/5
f 211/2/5 206/2/5 210/2/5
f 212/2/5 208/2/5 207/2/5
f 212/1/5 207/1/5 211/1/5
f 213/2/5 208/2/5 212/2/5
f 218/1/5 215/1/5 214/1/5
f 219/1/5 218/1/5 214/1/5
f 220/1/5 219/1/5 214/1/5
f 221/1/5 219/1/5 220/1/5
f 222/1/5 217/1/5 216/1/5
f 223/1/5 217/1/5 222/1/5
f 229/3/5 225/3/5 224/3/5
f 230/3/5 225/3/5 229/3/5
f 231/3/5 227/3/5 226/3/5
f 232/3/5 227/3/5 231/3/5
f 233/3/5 229/3/5 228/3/5
f 234/3/5 229/3/5 233/3/5
f 236/3/5 235/3/5 234/3/5
f 237/3/5 235/3/5 236/3/5
f 238/3/6 239/3/6 243/3/6
f 243/3/6 239/3/6 244/3/6
f 240/3/6 241/3/6 245/3/6
f 245/3/6 241/3/6 246/3/6
f 242/3/6 243/3/6 247/3/6
f 247/3/6 243/3/6 248/3/6
f 248/3/6 249/3/6 250/3/6
f 250/3/6 249/3/6 251/3/6
f 252/1/6 253/1/6 256/1/6
f 256/1/6 253/1/6 257/1/6
f 254/2/6 255/2/6 258/2/6
f 258/2/6 255/2/6 259/2/6
f 256/2/6 257/2/6 260/2/6
f 260/2/6 257/2/6 261/2/6
f 258/1/6 259/1/6 262/1/6
f 262/1/6 259/1/6 263/1/6
f 260/1/6 261/1/6 264/1/6
f 264/1/6 261/1/6 265/1/6
f 262/2/6 263/2/6 266/2/6
f 266/2/6 263/2/6 267/2/6
f 268/2/6 269/2/6 272/2/6
f 269/1/6 270/1/6 273/1/6
f 272/2/6 269/2/6 273/2/6
f 270/2/6 271/2/6 274/2/6
f 274/2/6 271/2/6 275/2/6
f 273/1/6 270/1/6 276/1/6
f 272/1/6 273/1/6 276/1/6
f 276/1/6 270/1/6 277/1/6
f 270/2/6 274/2/6 278/2/6
f 277/1/6 270/1/6 278/1/6
f 274/1/6 275/1/6 279/1/6
f 278/2/6 274/2/6 279/2/6
f 272/1/6 276/1/6 280/1/6
f 276/2/6 277/2/6 281/2/6
f 280/1/6 276/1/6 281/1/6
f 277/1/6 278/1/6 282/1/6
f 281/2/6 277/2/6 282/2/6
f 278/1/6 279/1/6 282/1/6
f 281/1/6 282/1/6 283/1/6
f 282/1/6 279/1/6 283/1/6
f 283/1/6 279/1/6 284/1/6
f 279/1/6 275/1/6 285/1/6
f 284/1/6 279/1/6 285/1/6
f 285/1/6 275/1/6 286/1/6
f 280/2/6 281/2/6 287/2/6
f 281/1/6 283/1/6 288/1/6
f 287/2/6 281/2/6 288/2/6
f 283/2/6 284/2/6 289/2/6
f 288/1/6 283/1/6 289/1/6
f 284/1/6 285/1/6 290/1/6
f 289/2/6 284/2/6 290/2/6
f 285/2/6 286/2/6 291/2/6
f 290/1/6 285/1/6 291/1/6
f 291/2/6 286/2/6 292/2/6
