# MagicaVoxel @ Ephtracy

# group
o 

# material
mtllib huesos.mtl
usemtl palette

# normals
vn -1 0 0
vn 1 0 0
vn 0 0 1
vn 0 0 -1
vn 0 -1 0
vn 0 1 0

# texcoords
vt 0.962891 0.5
vt 0.966797 0.5

# verts
v 0 2 0
v 0 2 -0.1
v 0 2 -0.2
v 0 2 -0.3
v 0 2.1 0
v 0 2.1 -0.1
v 0 2.1 -0.2
v 0 2.1 -0.3
v 0.1 2 -0.1
v 0.1 2 -0.2
v 0.1 2 -0.4
v 0.1 2 -0.5
v 0.1 2.1 -0.1
v 0.1 2.1 -0.2
v 0.1 2.1 -0.4
v 0.1 2.1 -0.5
v 0.1 2.2 -0.4
v 0.1 2.2 -0.5
v 0.1 2.3 -0.4
v 0.1 2.3 -0.5
v 0.2 2.1 -0.4
v 0.2 2.1 -0.5
v 0.2 2.2 -0.4
v 0.2 2.2 -0.5
v 0.6 2 0
v 0.6 2 -0.1
v 0.6 2 -0.2
v 0.6 2 -0.3
v 0.6 2 -0.4
v 0.6 2 -0.5
v 0.6 2.1 0
v 0.6 2.1 -0.1
v 0.6 2.1 -0.2
v 0.6 2.1 -0.3
v 0.6 2.1 -0.4
v 0.6 2.1 -0.5
v 0.6 2.2 -0.4
v 0.6 2.2 -0.5
v 0.6 2.3 -0.4
v 0.6 2.3 -0.5
v 0.1 2 0
v 0.1 2 -0.1
v 0.1 2 -0.2
v 0.1 2 -0.3
v 0.1 2.1 0
v 0.1 2.1 -0.1
v 0.1 2.1 -0.2
v 0.1 2.1 -0.3
v 0.2 2 -0.4
v 0.2 2 -0.5
v 0.2 2.1 -0.4
v 0.2 2.1 -0.5
v 0.2 2.2 -0.4
v 0.2 2.2 -0.5
v 0.2 2.3 -0.4
v 0.2 2.3 -0.5
v 0.6 2 -0.1
v 0.6 2 -0.2
v 0.6 2.1 -0.1
v 0.6 2.1 -0.2
v 0.6 2.1 -0.4
v 0.6 2.1 -0.5
v 0.6 2.2 -0.4
v 0.6 2.2 -0.5
v 0.7 2 0
v 0.7 2 -0.1
v 0.7 2 -0.2
v 0.7 2 -0.3
v 0.7 2 -0.4
v 0.7 2 -0.5
v 0.7 2.1 0
v 0.7 2.1 -0.1
v 0.7 2.1 -0.2
v 0.7 2.1 -0.3
v 0.7 2.1 -0.4
v 0.7 2.1 -0.5
v 0.7 2.2 -0.4
v 0.7 2.2 -0.5
v 0.7 2.3 -0.4
v 0.7 2.3 -0.5
v 0 2 0
v 0 2.1 0
v 0.1 2 0
v 0.1 2.1 0
v 0.6 2 0
v 0.6 2.1 0
v 0.7 2 0
v 0.7 2.1 0
v 0.1 2 -0.1
v 0.1 2.1 -0.1
v 0.2 2 -0.1
v 0.2 2.1 -0.1
v 0.6 2 -0.1
v 0.6 2.1 -0.1
v 0 2 -0.2
v 0 2.1 -0.2
v 0.1 2 -0.2
v 0.1 2.1 -0.2
v 0.6 2 -0.2
v 0.6 2.1 -0.2
v 0.7 2 -0.2
v 0.7 2.1 -0.2
v 0.1 2 -0.4
v 0.1 2.1 -0.4
v 0.1 2.2 -0.4
v 0.1 2.3 -0.4
v 0.2 2 -0.4
v 0.2 2.1 -0.4
v 0.2 2.2 -0.4
v 0.2 2.3 -0.4
v 0.3 2.1 -0.4
v 0.3 2.2 -0.4
v 0.6 2 -0.4
v 0.6 2.1 -0.4
v 0.6 2.2 -0.4
v 0.6 2.3 -0.4
v 0.7 2 -0.4
v 0.7 2.1 -0.4
v 0.7 2.2 -0.4
v 0.7 2.3 -0.4
v 0 2 -0.1
v 0 2.1 -0.1
v 0.1 2 -0.1
v 0.1 2.1 -0.1
v 0.6 2 -0.1
v 0.6 2.1 -0.1
v 0.7 2 -0.1
v 0.7 2.1 -0.1
v 0.1 2 -0.2
v 0.1 2.1 -0.2
v 0.2 2 -0.2
v 0.2 2.1 -0.2
v 0.6 2 -0.2
v 0.6 2.1 -0.2
v 0 2 -0.3
v 0 2.1 -0.3
v 0.1 2 -0.3
v 0.1 2.1 -0.3
v 0.6 2 -0.3
v 0.6 2.1 -0.3
v 0.7 2 -0.3
v 0.7 2.1 -0.3
v 0.1 2 -0.5
v 0.1 2.1 -0.5
v 0.1 2.2 -0.5
v 0.1 2.3 -0.5
v 0.2 2 -0.5
v 0.2 2.1 -0.5
v 0.2 2.2 -0.5
v 0.2 2.3 -0.5
v 0.3 2.1 -0.5
v 0.3 2.2 -0.5
v 0.6 2 -0.5
v 0.6 2.1 -0.5
v 0.6 2.2 -0.5
v 0.6 2.3 -0.5
v 0.7 2 -0.5
v 0.7 2.1 -0.5
v 0.7 2.2 -0.5
v 0.7 2.3 -0.5
v 0 2 0
v 0.1 2 0
v 0.6 2 0
v 0.7 2 0
v 0 2 -0.1
v 0.1 2 -0.1
v 0.2 2 -0.1
v 0.6 2 -0.1
v 0.7 2 -0.1
v 0 2 -0.2
v 0.1 2 -0.2
v 0.2 2 -0.2
v 0.6 2 -0.2
v 0.7 2 -0.2
v 0 2 -0.3
v 0.1 2 -0.3
v 0.6 2 -0.3
v 0.7 2 -0.3
v 0.1 2 -0.4
v 0.2 2 -0.4
v 0.6 2 -0.4
v 0.7 2 -0.4
v 0.1 2 -0.5
v 0.2 2 -0.5
v 0.6 2 -0.5
v 0.7 2 -0.5
v 0.2 2.1 -0.4
v 0.3 2.1 -0.4
v 0.6 2.1 -0.4
v 0.2 2.1 -0.5
v 0.3 2.1 -0.5
v 0.6 2.1 -0.5
v 0.1 2.2 -0.4
v 0.2 2.2 -0.4
v 0.6 2.2 -0.4
v 0.7 2.2 -0.4
v 0.1 2.2 -0.5
v 0.2 2.2 -0.5
v 0.6 2.2 -0.5
v 0.7 2.2 -0.5
v 0 2.1 0
v 0.1 2.1 0
v 0.6 2.1 0
v 0.7 2.1 0
v 0 2.1 -0.1
v 0.1 2.1 -0.1
v 0.2 2.1 -0.1
v 0.6 2.1 -0.1
v 0.7 2.1 -0.1
v 0 2.1 -0.2
v 0.1 2.1 -0.2
v 0.2 2.1 -0.2
v 0.6 2.1 -0.2
v 0.7 2.1 -0.2
v 0 2.1 -0.3
v 0.1 2.1 -0.3
v 0.6 2.1 -0.3
v 0.7 2.1 -0.3
v 0.1 2.1 -0.4
v 0.2 2.1 -0.4
v 0.6 2.1 -0.4
v 0.7 2.1 -0.4
v 0.1 2.1 -0.5
v 0.2 2.1 -0.5
v 0.6 2.1 -0.5
v 0.7 2.1 -0.5
v 0.2 2.2 -0.4
v 0.3 2.2 -0.4
v 0.6 2.2 -0.4
v 0.2 2.2 -0.5
v 0.3 2.2 -0.5
v 0.6 2.2 -0.5
v 0.1 2.3 -0.4
v 0.2 2.3 -0.4
v 0.6 2.3 -0.4
v 0.7 2.3 -0.4
v 0.1 2.3 -0.5
v 0.2 2.3 -0.5
v 0.6 2.3 -0.5
v 0.7 2.3 -0.5

# faces
f 5/2/1 2/2/1 1/2/1
f 6/2/1 2/2/1 5/2/1
f 7/1/1 4/1/1 3/1/1
f 8/1/1 4/1/1 7/1/1
f 13/1/1 10/1/1 9/1/1
f 14/1/1 10/1/1 13/1/1
f 15/2/1 12/2/1 11/2/1
f 16/2/1 12/2/1 15/2/1
f 19/2/1 18/2/1 17/2/1
f 20/2/1 18/2/1 19/2/1
f 23/1/1 22/1/1 21/1/1
f 24/1/1 22/1/1 23/1/1
f 31/1/1 26/1/1 25/1/1
f 32/1/1 26/1/1 31/1/1
f 33/2/1 28/2/1 27/2/1
f 34/2/1 28/2/1 33/2/1
f 35/2/1 30/2/1 29/2/1
f 36/2/1 30/2/1 35/2/1
f 39/1/1 38/1/1 37/1/1
f 40/1/1 38/1/1 39/1/1
f 41/2/2 42/2/2 45/2/2
f 45/2/2 42/2/2 46/2/2
f 43/1/2 44/1/2 47/1/2
f 47/1/2 44/1/2 48/1/2
f 49/2/2 50/2/2 51/2/2
f 51/2/2 50/2/2 52/2/2
f 53/2/2 54/2/2 55/2/2
f 55/2/2 54/2/2 56/2/2
f 57/2/2 58/2/2 59/2/2
f 59/2/2 58/2/2 60/2/2
f 61/2/2 62/2/2 63/2/2
f 63/2/2 62/2/2 64/2/2
f 65/1/2 66/1/2 71/1/2
f 71/1/2 66/1/2 72/1/2
f 67/2/2 68/2/2 73/2/2
f 73/2/2 68/2/2 74/2/2
f 69/2/2 70/2/2 75/2/2
f 75/2/2 70/2/2 76/2/2
f 77/1/2 78/1/2 79/1/2
f 79/1/2 78/1/2 80/1/2
f 83/2/3 82/2/3 81/2/3
f 84/2/3 82/2/3 83/2/3
f 87/1/3 86/1/3 85/1/3
f 88/1/3 86/1/3 87/1/3
f 91/1/3 90/1/3 89/1/3
f 92/1/3 90/1/3 91/1/3
f 93/2/3 92/2/3 91/2/3
f 94/2/3 92/2/3 93/2/3
f 97/1/3 96/1/3 95/1/3
f 98/1/3 96/1/3 97/1/3
f 101/2/3 100/2/3 99/2/3
f 102/2/3 100/2/3 101/2/3
f 107/2/3 104/2/3 103/2/3
f 108/2/3 104/2/3 107/2/3
f 109/2/3 106/2/3 105/2/3
f 110/2/3 106/2/3 109/2/3
f 111/1/3 109/1/3 108/1/3
f 112/1/3 109/1/3 111/1/3
f 114/2/3 112/2/3 111/2/3
f 115/2/3 112/2/3 114/2/3
f 117/2/3 114/2/3 113/2/3
f 118/2/3 114/2/3 117/2/3
f 119/1/3 116/1/3 115/1/3
f 120/1/3 116/1/3 119/1/3
f 121/2/4 122/2/4 123/2/4
f 123/2/4 122/2/4 124/2/4
f 125/1/4 126/1/4 127/1/4
f 127/1/4 126/1/4 128/1/4
f 129/1/4 130/1/4 131/1/4
f 131/1/4 130/1/4 132/1/4
f 131/2/4 132/2/4 133/2/4
f 133/2/4 132/2/4 134/2/4
f 135/1/4 136/1/4 137/1/4
f 137/1/4 136/1/4 138/1/4
f 139/2/4 140/2/4 141/2/4
f 141/2/4 140/2/4 142/2/4
f 143/2/4 144/2/4 147/2/4
f 147/2/4 144/2/4 148/2/4
f 145/2/4 146/2/4 149/2/4
f 149/2/4 146/2/4 150/2/4
f 148/1/4 149/1/4 151/1/4
f 151/1/4 149/1/4 152/1/4
f 151/2/4 152/2/4 154/2/4
f 154/2/4 152/2/4 155/2/4
f 153/2/4 154/2/4 157/2/4
f 157/2/4 154/2/4 158/2/4
f 155/1/4 156/1/4 159/1/4
f 159/1/4 156/1/4 160/1/4
f 165/2/5 162/2/5 161/2/5
f 166/2/5 162/2/5 165/2/5
f 168/1/5 164/1/5 163/1/5
f 169/1/5 164/1/5 168/1/5
f 171/1/5 167/1/5 166/1/5
f 172/2/5 168/2/5 167/2/5
f 172/1/5 167/1/5 171/1/5
f 173/2/5 168/2/5 172/2/5
f 175/1/5 171/1/5 170/1/5
f 176/1/5 171/1/5 175/1/5
f 177/2/5 174/2/5 173/2/5
f 178/2/5 174/2/5 177/2/5
f 183/2/5 180/2/5 179/2/5
f 184/2/5 180/2/5 183/2/5
f 185/2/5 182/2/5 181/2/5
f 186/2/5 182/2/5 185/2/5
f 190/1/5 188/1/5 187/1/5
f 191/2/5 189/2/5 188/2/5
f 191/1/5 188/1/5 190/1/5
f 192/2/5 189/2/5 191/2/5
f 197/2/5 194/2/5 193/2/5
f 198/2/5 194/2/5 197/2/5
f 199/1/5 196/1/5 195/1/5
f 200/1/5 196/1/5 199/1/5
f 201/2/6 202/2/6 205/2/6
f 205/2/6 202/2/6 206/2/6
f 203/1/6 204/1/6 208/1/6
f 208/1/6 204/1/6 209/1/6
f 206/1/6 207/1/6 211/1/6
f 207/2/6 208/2/6 212/2/6
f 211/1/6 207/1/6 212/1/6
f 212/2/6 208/2/6 213/2/6
f 210/1/6 211/1/6 215/1/6
f 215/1/6 211/1/6 216/1/6
f 213/2/6 214/2/6 217/2/6
f 217/2/6 214/2/6 218/2/6
f 219/2/6 220/2/6 223/2/6
f 223/2/6 220/2/6 224/2/6
f 221/2/6 222/2/6 225/2/6
f 225/2/6 222/2/6 226/2/6
f 227/1/6 228/1/6 230/1/6
f 228/2/6 229/2/6 231/2/6
f 230/1/6 228/1/6 231/1/6
f 231/2/6 229/2/6 232/2/6
f 233/2/6 234/2/6 237/2/6
f 237/2/6 234/2/6 238/2/6
f 235/1/6 236/1/6 239/1/6
f 239/1/6 236/1/6 240/1/6
