# MagicaVoxel @ Ephtracy

# group
o 

# material
mtllib sangreOgro.mtl
usemtl palette

# normals
vn -1 0 0
vn 1 0 0
vn 0 0 1
vn 0 0 -1
vn 0 -1 0
vn 0 1 0

# texcoords
vt 0.626953 0.5
vt 0.634766 0.5
vt 0.677734 0.5
vt 0.908203 0.5
vt 0.923828 0.5

# verts
v 0 2.1 -0.1
v 0 2.1 -0.6
v 0 2.3 -0.4
v 0 2.3 -0.6
v 0 2.4 -0.1
v 0 2.4 -0.4
v 0 2.5 -0.1
v 0 2.5 -0.6
v 0.1 2 -0.1
v 0.1 2 -0.6
v 0.1 2.1 0
v 0.1 2.1 -0.1
v 0.1 2.1 -0.6
v 0.1 2.1 -0.7
v 0.1 2.3 0
v 0.1 2.3 -0.1
v 0.1 2.3 -0.6
v 0.1 2.3 -0.7
v 0.1 2.4 -0.1
v 0.1 2.5 0
v 0.1 2.5 -0.1
v 0.1 2.5 -0.2
v 0.1 2.5 -0.5
v 0.1 2.5 -0.6
v 0.1 2.5 -0.7
v 0.1 2.6 -0.2
v 0.1 2.6 -0.5
v 0.2 2.5 -0.1
v 0.2 2.5 -0.2
v 0.2 2.5 -0.5
v 0.2 2.5 -0.6
v 0.2 2.6 -0.1
v 0.2 2.6 -0.2
v 0.2 2.6 -0.5
v 0.2 2.6 -0.6
v 0.2 2.7 -0.2
v 0.2 2.7 -0.5
v 0.2 2.8 -0.2
v 0.2 2.8 -0.5
v 0.2 3 -0.2
v 0.2 3 -0.5
v 0.3 2.7 -0.3
v 0.3 2.7 -0.4
v 0.3 2.8 -0.3
v 0.3 2.8 -0.4
v 0.3 3 -0.3
v 0.3 3 -0.4
v 0.3 3.1 -0.3
v 0.3 3.1 -0.4
v 0.4 2.7 -0.3
v 0.4 2.7 -0.4
v 0.4 2.8 -0.3
v 0.4 2.8 -0.4
v 0.4 3 -0.3
v 0.4 3 -0.4
v 0.4 3.1 -0.3
v 0.4 3.1 -0.4
v 0.5 2.5 -0.1
v 0.5 2.5 -0.2
v 0.5 2.5 -0.5
v 0.5 2.5 -0.6
v 0.5 2.6 -0.1
v 0.5 2.6 -0.2
v 0.5 2.6 -0.5
v 0.5 2.6 -0.6
v 0.5 2.7 -0.2
v 0.5 2.7 -0.5
v 0.5 2.8 -0.2
v 0.5 2.8 -0.5
v 0.5 3 -0.2
v 0.5 3 -0.5
v 0.6 2 -0.1
v 0.6 2 -0.6
v 0.6 2.1 0
v 0.6 2.1 -0.1
v 0.6 2.1 -0.6
v 0.6 2.1 -0.7
v 0.6 2.3 -0.1
v 0.6 2.3 -0.6
v 0.6 2.3 -0.7
v 0.6 2.4 0
v 0.6 2.4 -0.1
v 0.6 2.5 0
v 0.6 2.5 -0.1
v 0.6 2.5 -0.2
v 0.6 2.5 -0.5
v 0.6 2.5 -0.6
v 0.6 2.5 -0.7
v 0.6 2.6 -0.2
v 0.6 2.6 -0.5
v 0.7 2.1 -0.1
v 0.7 2.1 -0.6
v 0.7 2.3 -0.1
v 0.7 2.3 -0.2
v 0.7 2.3 -0.4
v 0.7 2.3 -0.6
v 0.7 2.4 -0.2
v 0.7 2.4 -0.4
v 0.7 2.5 -0.1
v 0.7 2.5 -0.6
v 0.1 2.1 0
v 0.1 2.3 0
v 0.1 2.5 0
v 0.4 2.3 0
v 0.4 2.4 0
v 0.6 2.1 0
v 0.6 2.4 0
v 0.6 2.5 0
v 0 2.1 -0.1
v 0 2.4 -0.1
v 0 2.5 -0.1
v 0.1 2 -0.1
v 0.1 2.1 -0.1
v 0.1 2.3 -0.1
v 0.1 2.4 -0.1
v 0.1 2.5 -0.1
v 0.2 2.5 -0.1
v 0.2 2.6 -0.1
v 0.5 2.5 -0.1
v 0.5 2.6 -0.1
v 0.6 2 -0.1
v 0.6 2.1 -0.1
v 0.6 2.3 -0.1
v 0.6 2.4 -0.1
v 0.6 2.5 -0.1
v 0.7 2.1 -0.1
v 0.7 2.3 -0.1
v 0.7 2.5 -0.1
v 0.1 2.5 -0.2
v 0.1 2.6 -0.2
v 0.2 2.5 -0.2
v 0.2 2.6 -0.2
v 0.2 2.7 -0.2
v 0.2 2.8 -0.2
v 0.2 3 -0.2
v 0.5 2.5 -0.2
v 0.5 2.6 -0.2
v 0.5 2.7 -0.2
v 0.5 2.8 -0.2
v 0.5 3 -0.2
v 0.6 2.5 -0.2
v 0.6 2.6 -0.2
v 0.3 2.7 -0.3
v 0.3 2.8 -0.3
v 0.3 3 -0.3
v 0.3 3.1 -0.3
v 0.4 2.7 -0.3
v 0.4 2.8 -0.3
v 0.4 3 -0.3
v 0.4 3.1 -0.3
v 0.3 2.7 -0.4
v 0.3 2.8 -0.4
v 0.3 3 -0.4
v 0.3 3.1 -0.4
v 0.4 2.7 -0.4
v 0.4 2.8 -0.4
v 0.4 3 -0.4
v 0.4 3.1 -0.4
v 0.1 2.5 -0.5
v 0.1 2.6 -0.5
v 0.2 2.5 -0.5
v 0.2 2.6 -0.5
v 0.2 2.7 -0.5
v 0.2 2.8 -0.5
v 0.2 3 -0.5
v 0.5 2.5 -0.5
v 0.5 2.6 -0.5
v 0.5 2.7 -0.5
v 0.5 2.8 -0.5
v 0.5 3 -0.5
v 0.6 2.5 -0.5
v 0.6 2.6 -0.5
v 0 2.1 -0.6
v 0 2.3 -0.6
v 0 2.5 -0.6
v 0.1 2 -0.6
v 0.1 2.1 -0.6
v 0.1 2.3 -0.6
v 0.1 2.5 -0.6
v 0.2 2.5 -0.6
v 0.2 2.6 -0.6
v 0.5 2.5 -0.6
v 0.5 2.6 -0.6
v 0.6 2 -0.6
v 0.6 2.1 -0.6
v 0.6 2.3 -0.6
v 0.6 2.5 -0.6
v 0.7 2.1 -0.6
v 0.7 2.3 -0.6
v 0.7 2.5 -0.6
v 0.1 2.1 -0.7
v 0.1 2.3 -0.7
v 0.1 2.5 -0.7
v 0.3 2.3 -0.7
v 0.3 2.4 -0.7
v 0.5 2.3 -0.7
v 0.5 2.4 -0.7
v 0.6 2.1 -0.7
v 0.6 2.3 -0.7
v 0.6 2.5 -0.7
v 0.1 2 -0.1
v 0.6 2 -0.1
v 0.2 2 -0.2
v 0.4 2 -0.2
v 0.2 2 -0.5
v 0.4 2 -0.5
v 0.1 2 -0.6
v 0.6 2 -0.6
v 0.1 2.1 0
v 0.6 2.1 0
v 0 2.1 -0.1
v 0.1 2.1 -0.1
v 0.6 2.1 -0.1
v 0.7 2.1 -0.1
v 0 2.1 -0.6
v 0.1 2.1 -0.6
v 0.6 2.1 -0.6
v 0.7 2.1 -0.6
v 0.1 2.1 -0.7
v 0.6 2.1 -0.7
v 0.2 2.8 -0.2
v 0.5 2.8 -0.2
v 0.3 2.8 -0.3
v 0.4 2.8 -0.3
v 0.3 2.8 -0.4
v 0.4 2.8 -0.4
v 0.2 2.8 -0.5
v 0.5 2.8 -0.5
v 0.1 2.5 0
v 0.6 2.5 0
v 0 2.5 -0.1
v 0.1 2.5 -0.1
v 0.2 2.5 -0.1
v 0.5 2.5 -0.1
v 0.6 2.5 -0.1
v 0.7 2.5 -0.1
v 0.1 2.5 -0.2
v 0.2 2.5 -0.2
v 0.5 2.5 -0.2
v 0.6 2.5 -0.2
v 0.1 2.5 -0.5
v 0.2 2.5 -0.5
v 0.5 2.5 -0.5
v 0.6 2.5 -0.5
v 0 2.5 -0.6
v 0.1 2.5 -0.6
v 0.2 2.5 -0.6
v 0.5 2.5 -0.6
v 0.6 2.5 -0.6
v 0.7 2.5 -0.6
v 0.1 2.5 -0.7
v 0.6 2.5 -0.7
v 0.2 2.6 -0.1
v 0.5 2.6 -0.1
v 0.1 2.6 -0.2
v 0.2 2.6 -0.2
v 0.5 2.6 -0.2
v 0.6 2.6 -0.2
v 0.1 2.6 -0.5
v 0.2 2.6 -0.5
v 0.5 2.6 -0.5
v 0.6 2.6 -0.5
v 0.2 2.6 -0.6
v 0.5 2.6 -0.6
v 0.2 2.7 -0.2
v 0.5 2.7 -0.2
v 0.3 2.7 -0.3
v 0.4 2.7 -0.3
v 0.3 2.7 -0.4
v 0.4 2.7 -0.4
v 0.2 2.7 -0.5
v 0.5 2.7 -0.5
v 0.2 3 -0.2
v 0.5 3 -0.2
v 0.3 3 -0.3
v 0.4 3 -0.3
v 0.3 3 -0.4
v 0.4 3 -0.4
v 0.2 3 -0.5
v 0.5 3 -0.5
v 0.3 3.1 -0.3
v 0.4 3.1 -0.3
v 0.3 3.1 -0.4
v 0.4 3.1 -0.4

# faces
f 3/1/1 2/1/1 1/1/1
f 4/1/1 2/1/1 3/1/1
f 5/1/1 3/1/1 1/1/1
f 6/3/1 4/3/1 3/3/1
f 6/1/1 3/1/1 5/1/1
f 7/3/1 6/3/1 5/3/1
f 8/3/1 4/3/1 6/3/1
f 8/3/1 6/3/1 7/3/1
f 12/2/1 10/2/1 9/2/1
f 13/2/1 10/2/1 12/2/1
f 15/1/1 12/1/1 11/1/1
f 16/1/1 12/1/1 15/1/1
f 17/1/1 14/1/1 13/1/1
f 18/1/1 14/1/1 17/1/1
f 19/3/1 16/3/1 15/3/1
f 20/3/1 19/3/1 15/3/1
f 21/3/1 19/3/1 20/3/1
f 24/3/1 18/3/1 17/3/1
f 25/3/1 18/3/1 24/3/1
f 26/3/1 23/3/1 22/3/1
f 27/3/1 23/3/1 26/3/1
f 32/3/1 29/3/1 28/3/1
f 33/3/1 29/3/1 32/3/1
f 34/3/1 31/3/1 30/3/1
f 35/3/1 31/3/1 34/3/1
f 36/3/1 34/3/1 33/3/1
f 37/3/1 34/3/1 36/3/1
f 40/3/1 39/3/1 38/3/1
f 41/3/1 39/3/1 40/3/1
f 44/4/1 43/4/1 42/4/1
f 45/4/1 43/4/1 44/4/1
f 48/4/1 47/4/1 46/4/1
f 49/4/1 47/4/1 48/4/1
f 50/4/2 51/4/2 52/4/2
f 52/4/2 51/4/2 53/4/2
f 54/4/2 55/4/2 56/4/2
f 56/4/2 55/4/2 57/4/2
f 58/3/2 59/3/2 62/3/2
f 62/3/2 59/3/2 63/3/2
f 60/3/2 61/3/2 64/3/2
f 64/3/2 61/3/2 65/3/2
f 63/3/2 64/3/2 66/3/2
f 66/3/2 64/3/2 67/3/2
f 68/3/2 69/3/2 70/3/2
f 70/3/2 69/3/2 71/3/2
f 72/2/2 73/2/2 75/2/2
f 75/2/2 73/2/2 76/2/2
f 74/1/2 75/1/2 78/1/2
f 76/1/2 77/1/2 79/1/2
f 79/1/2 77/1/2 80/1/2
f 74/1/2 78/1/2 81/1/2
f 81/1/2 78/1/2 82/1/2
f 81/3/2 82/3/2 83/3/2
f 83/3/2 82/3/2 84/3/2
f 79/3/2 80/3/2 87/3/2
f 87/3/2 80/3/2 88/3/2
f 85/3/2 86/3/2 89/3/2
f 89/3/2 86/3/2 90/3/2
f 91/1/2 92/1/2 93/1/2
f 93/1/2 92/1/2 94/1/2
f 94/1/2 92/1/2 95/1/2
f 95/1/2 92/1/2 96/1/2
f 93/3/2 94/3/2 97/3/2
f 94/1/2 95/1/2 97/1/2
f 95/3/2 96/3/2 98/3/2
f 97/1/2 95/1/2 98/1/2
f 93/3/2 97/3/2 99/3/2
f 97/3/2 98/3/2 99/3/2
f 98/3/2 96/3/2 100/3/2
f 99/3/2 98/3/2 100/3/2
f 104/1/3 102/1/3 101/1/3
f 104/3/3 103/3/3 102/3/3
f 105/3/3 103/3/3 104/3/3
f 106/1/3 104/1/3 101/1/3
f 106/1/3 105/1/3 104/1/3
f 107/3/3 103/3/3 105/3/3
f 107/1/3 105/1/3 106/1/3
f 108/3/3 103/3/3 107/3/3
f 113/1/3 110/1/3 109/1/3
f 114/1/3 110/1/3 113/1/3
f 115/3/3 111/3/3 110/3/3
f 115/1/3 110/1/3 114/1/3
f 116/3/3 111/3/3 115/3/3
f 119/3/3 118/3/3 117/3/3
f 120/3/3 118/3/3 119/3/3
f 121/2/3 113/2/3 112/2/3
f 122/2/3 113/2/3 121/2/3
f 126/1/3 123/1/3 122/1/3
f 127/3/3 125/3/3 124/3/3
f 127/1/3 123/1/3 126/1/3
f 127/3/3 124/3/3 123/3/3
f 128/3/3 125/3/3 127/3/3
f 131/3/3 130/3/3 129/3/3
f 132/3/3 130/3/3 131/3/3
f 137/3/3 133/3/3 132/3/3
f 138/3/3 133/3/3 137/3/3
f 139/3/3 135/3/3 134/3/3
f 140/3/3 135/3/3 139/3/3
f 141/3/3 137/3/3 136/3/3
f 142/3/3 137/3/3 141/3/3
f 147/4/3 144/4/3 143/4/3
f 148/4/3 144/4/3 147/4/3
f 149/4/3 146/4/3 145/4/3
f 150/4/3 146/4/3 149/4/3
f 151/4/4 152/4/4 155/4/4
f 155/4/4 152/4/4 156/4/4
f 153/4/4 154/4/4 157/4/4
f 157/4/4 154/4/4 158/4/4
f 159/3/4 160/3/4 161/3/4
f 161/3/4 160/3/4 162/3/4
f 162/3/4 163/3/4 167/3/4
f 167/3/4 163/3/4 168/3/4
f 164/3/4 165/3/4 169/3/4
f 169/3/4 165/3/4 170/3/4
f 166/3/4 167/3/4 171/3/4
f 171/3/4 167/3/4 172/3/4
f 173/1/4 174/1/4 177/1/4
f 174/3/4 175/3/4 178/3/4
f 177/1/4 174/1/4 178/1/4
f 178/3/4 175/3/4 179/3/4
f 180/3/4 181/3/4 182/3/4
f 182/3/4 181/3/4 183/3/4
f 176/2/4 177/2/4 184/2/4
f 184/2/4 177/2/4 185/2/4
f 185/1/4 186/1/4 188/1/4
f 186/3/4 187/3/4 189/3/4
f 188/1/4 186/1/4 189/1/4
f 189/3/4 187/3/4 190/3/4
f 191/1/4 192/1/4 194/1/4
f 192/3/4 193/3/4 194/3/4
f 194/3/4 193/3/4 195/3/4
f 191/1/4 194/1/4 196/1/4
f 194/1/4 195/1/4 196/1/4
f 195/3/4 193/3/4 197/3/4
f 196/1/4 195/1/4 197/1/4
f 191/1/4 196/1/4 198/1/4
f 196/3/4 197/3/4 199/3/4
f 198/1/4 196/1/4 199/1/4
f 197/3/4 193/3/4 200/3/4
f 199/3/4 197/3/4 200/3/4
f 203/2/5 202/2/5 201/2/5
f 204/2/5 202/2/5 203/2/5
f 205/2/5 203/2/5 201/2/5
f 205/1/5 204/1/5 203/1/5
f 206/2/5 202/2/5 204/2/5
f 206/1/5 204/1/5 205/1/5
f 207/2/5 205/2/5 201/2/5
f 207/2/5 206/2/5 205/2/5
f 208/2/5 202/2/5 206/2/5
f 208/2/5 206/2/5 207/2/5
f 212/1/5 210/1/5 209/1/5
f 213/1/5 210/1/5 212/1/5
f 215/1/5 212/1/5 211/1/5
f 216/1/5 212/1/5 215/1/5
f 217/1/5 214/1/5 213/1/5
f 218/1/5 214/1/5 217/1/5
f 219/1/5 217/1/5 216/1/5
f 220/1/5 217/1/5 219/1/5
f 223/3/5 222/3/5 221/3/5
f 224/3/5 222/3/5 223/3/5
f 225/3/5 223/3/5 221/3/5
f 226/3/5 222/3/5 224/3/5
f 227/3/5 225/3/5 221/3/5
f 227/3/5 226/3/5 225/3/5
f 228/3/5 222/3/5 226/3/5
f 228/3/5 226/3/5 227/3/5
f 229/3/6 230/3/6 232/3/6
f 232/3/6 230/3/6 233/3/6
f 233/3/6 230/3/6 234/3/6
f 234/3/6 230/3/6 235/3/6
f 231/3/6 232/3/6 237/3/6
f 232/3/6 233/3/6 237/3/6
f 237/3/6 233/3/6 238/3/6
f 235/3/6 236/3/6 239/3/6
f 234/3/6 235/3/6 239/3/6
f 239/3/6 236/3/6 240/3/6
f 231/3/6 237/3/6 241/3/6
f 240/3/6 236/3/6 244/3/6
f 241/3/6 242/3/6 245/3/6
f 231/3/6 241/3/6 245/3/6
f 245/3/6 242/3/6 246/3/6
f 246/3/6 242/3/6 247/3/6
f 243/3/6 244/3/6 248/3/6
f 244/3/6 236/3/6 249/3/6
f 248/3/6 244/3/6 249/3/6
f 249/3/6 236/3/6 250/3/6
f 246/3/6 247/3/6 251/3/6
f 247/3/6 248/3/6 251/3/6
f 248/3/6 249/3/6 251/3/6
f 251/3/6 249/3/6 252/3/6
f 253/3/6 254/3/6 256/3/6
f 256/3/6 254/3/6 257/3/6
f 255/3/6 256/3/6 259/3/6
f 259/3/6 256/3/6 260/3/6
f 257/3/6 258/3/6 261/3/6
f 261/3/6 258/3/6 262/3/6
f 260/3/6 261/3/6 263/3/6
f 263/3/6 261/3/6 264/3/6
f 265/3/6 266/3/6 267/3/6
f 267/3/6 266/3/6 268/3/6
f 265/3/6 267/3/6 269/3/6
f 268/3/6 266/3/6 270/3/6
f 265/3/6 269/3/6 271/3/6
f 269/3/6 270/3/6 271/3/6
f 270/3/6 266/3/6 272/3/6
f 271/3/6 270/3/6 272/3/6
f 273/3/6 274/3/6 275/3/6
f 275/3/6 274/3/6 276/3/6
f 273/3/6 275/3/6 277/3/6
f 276/3/6 274/3/6 278/3/6
f 273/3/6 277/3/6 279/3/6
f 277/3/6 278/3/6 279/3/6
f 278/3/6 274/3/6 280/3/6
f 279/3/6 278/3/6 280/3/6
f 281/4/6 282/4/6 283/4/6
f 283/4/6 282/4/6 284/4/6
